<svg xmlns="http://www.w3.org/2000/svg" width="1920" height="1080" viewBox="0 0 1920 1080" preserveAspectRatio="xMidYMid slice">
<defs><linearGradient id="sky" x1="0" y1="0" x2="0" y2="1"><stop offset="0" stop-color="#241539"/><stop offset="0.4" stop-color="#5a2a63"/><stop offset="0.72" stop-color="#a84a5f"/><stop offset="1" stop-color="#e88a4e"/></linearGradient><radialGradient id="sun" ><stop offset="0" stop-color="#ffe09f"/><stop offset="0.35" stop-color="#ffcf6b"/><stop offset="0.6" stop-color="#ffcf6b" stop-opacity="0.5"/><stop offset="1" stop-color="#ffcf6b" stop-opacity="0"/></radialGradient><linearGradient id="water" x1="0" y1="0" x2="0" y2="1"><stop offset="0" stop-color="#e88a4e"/><stop offset="1" stop-color="#381c3f"/></linearGradient><radialGradient id="vig" cx=".5" cy=".55" r=".85"><stop offset="0.5" stop-color="#000" stop-opacity="0"/><stop offset="1" stop-color="#05060a" stop-opacity="0.5"/></radialGradient></defs>
<rect width="1920" height="742" fill="url(#sky)"/><circle cx="1089" cy="560" r="430" fill="url(#sun)"/><circle cx="1089" cy="560" r="150" fill="#ffd989" opacity="0.92"/><path d="M-30 1080 L-30.0 596.8 L60.0 602.5 L150.0 602.1 L240.0 617.3 L330.0 600.2 L420.0 627.9 L510.0 581.3 L600.0 561.9 L690.0 613.6 L780.0 583.3 L870.0 556.2 L960.0 621.6 L1050.0 570.7 L1140.0 629.9 L1230.0 574.2 L1320.0 577.8 L1410.0 622.6 L1500.0 554.2 L1590.0 620.5 L1680.0 628.3 L1770.0 552.8 L1860.0 619.2 L1950.0 624.4 L1950 1080 Z" fill="#311c36"/><path d="M-30 1080 L-30.0 694.2 L60.0 669.8 L150.0 637.6 L240.0 627.2 L330.0 640.1 L420.0 671.3 L510.0 634.4 L600.0 623.5 L690.0 654.0 L780.0 654.1 L870.0 666.6 L960.0 642.1 L1050.0 625.1 L1140.0 686.7 L1230.0 651.6 L1320.0 652.2 L1410.0 629.1 L1500.0 652.6 L1590.0 650.1 L1680.0 660.2 L1770.0 650.7 L1860.0 633.9 L1950.0 645.3 L1950 1080 Z" fill="#231426"/><rect y="742" width="1920" height="338" fill="url(#water)"/><rect x="1029" y="742" width="120" height="338" fill="#ffcf6b" opacity="0.18"/><rect x="108" y="752" width="163" height="3" fill="#ad7d67" opacity="0.22"/><rect x="571" y="764" width="250" height="3" fill="#ad7d67" opacity="0.21"/><rect x="365" y="776" width="79" height="3" fill="#ad7d67" opacity="0.21"/><rect x="1361" y="788" width="55" height="3" fill="#ad7d67" opacity="0.20"/><rect x="595" y="800" width="250" height="3" fill="#ad7d67" opacity="0.20"/><rect x="1708" y="812" width="134" height="3" fill="#ad7d67" opacity="0.19"/><rect x="1103" y="824" width="63" height="3" fill="#ad7d67" opacity="0.18"/><rect x="775" y="836" width="143" height="3" fill="#ad7d67" opacity="0.18"/><rect x="1270" y="848" width="87" height="3" fill="#ad7d67" opacity="0.17"/><rect x="1226" y="860" width="127" height="3" fill="#ad7d67" opacity="0.17"/><rect x="1016" y="872" width="111" height="3" fill="#ad7d67" opacity="0.16"/><rect x="669" y="884" width="217" height="3" fill="#ad7d67" opacity="0.15"/><rect x="454" y="896" width="76" height="3" fill="#ad7d67" opacity="0.15"/><rect x="649" y="908" width="126" height="3" fill="#ad7d67" opacity="0.14"/><rect x="1577" y="920" width="161" height="3" fill="#ad7d67" opacity="0.14"/><rect x="454" y="932" width="240" height="3" fill="#ad7d67" opacity="0.13"/><rect x="1664" y="944" width="77" height="3" fill="#ad7d67" opacity="0.12"/><rect x="1631" y="956" width="64" height="3" fill="#ad7d67" opacity="0.12"/><rect x="1032" y="968" width="212" height="3" fill="#ad7d67" opacity="0.11"/><rect x="1105" y="980" width="50" height="3" fill="#ad7d67" opacity="0.11"/><rect x="1310" y="992" width="199" height="3" fill="#ad7d67" opacity="0.10"/><rect x="1612" y="1004" width="250" height="3" fill="#ad7d67" opacity="0.09"/><rect x="1047" y="1016" width="225" height="3" fill="#ad7d67" opacity="0.09"/><rect x="159" y="1028" width="96" height="3" fill="#ad7d67" opacity="0.08"/><rect x="637" y="1040" width="137" height="3" fill="#ad7d67" opacity="0.08"/><rect x="158" y="1052" width="258" height="3" fill="#ad7d67" opacity="0.07"/><g fill="#160a1e"><rect x="1206" y="452" width="34" height="516"/><rect x="1506" y="452" width="34" height="516"/><path d="M1145.06272811722 452 q 228 -46 456 0 l -14 34 q -214 -30 -428 0 Z"/><rect x="1183" y="526" width="380" height="26"/><rect x="1357" y="456" width="32" height="70"/></g><path d="M324.61377719882876 315.10047536343336 q 10.984284960664809 -7.688999472465365 21.968569921329618 0 q 10.984284960664809 -7.688999472465365 21.968569921329618 0" fill="none" stroke="#29172d" stroke-width="3.1" stroke-linecap="round" opacity="0.55"/><path d="M292.492057941854 189.71771709620953 q 14.869734156411141 -10.408813909487797 29.739468312822282 0 q 14.869734156411141 -10.408813909487797 29.739468312822282 0" fill="none" stroke="#29172d" stroke-width="4.2" stroke-linecap="round" opacity="0.55"/><path d="M210.27451297268271 234.01675447821617 q 10.31844979757443 -7.222914858302101 20.63689959514886 0 q 10.31844979757443 -7.222914858302101 20.63689959514886 0" fill="none" stroke="#29172d" stroke-width="2.9" stroke-linecap="round" opacity="0.55"/><path d="M359.51325125060976 228.13392486423254 q 10.59154645493254 -7.414082518452778 21.18309290986508 0 q 10.59154645493254 -7.414082518452778 21.18309290986508 0" fill="none" stroke="#29172d" stroke-width="3.0" stroke-linecap="round" opacity="0.55"/><path d="M619.6357731940225 206.46379932761192 q 12.929567780345678 -9.050697446241974 25.859135560691357 0 q 12.929567780345678 -9.050697446241974 25.859135560691357 0" fill="none" stroke="#29172d" stroke-width="3.6" stroke-linecap="round" opacity="0.55"/><rect width="1920" height="1080" fill="url(#vig)"/>
</svg>
