<svg xmlns="http://www.w3.org/2000/svg" width="1920" height="1080" viewBox="0 0 1920 1080" preserveAspectRatio="xMidYMid slice">
<defs><linearGradient id="sky" x1="0" y1="0" x2="0" y2="1"><stop offset="0" stop-color="#16161d"/><stop offset="0.45" stop-color="#1f1f28"/><stop offset="0.78" stop-color="#2a2a37"/><stop offset="1" stop-color="#363646"/></linearGradient><radialGradient id="gl" ><stop offset="0" stop-color="#957fb8" stop-opacity="0.28"/><stop offset="0.6" stop-color="#957fb8" stop-opacity="0.05"/><stop offset="1" stop-color="#957fb8" stop-opacity="0"/></radialGradient><radialGradient id="vig" cx=".5" cy=".55" r=".85"><stop offset="0.5" stop-color="#000" stop-opacity="0"/><stop offset="1" stop-color="#05060a" stop-opacity="0.5"/></radialGradient></defs>
<rect width="1920" height="1080" fill="url(#sky)"/><ellipse cx="785" cy="318" rx="640" ry="360" fill="url(#gl)"/><circle cx="68.5" cy="295.4" r="1.07" fill="#dcd7ba" opacity="0.15"/><circle cx="1306.9" cy="43.1" r="1.30" fill="#dcd7ba" opacity="0.34"/><circle cx="303.3" cy="159.8" r="0.83" fill="#dcd7ba" opacity="0.50"/><circle cx="256.2" cy="173.0" r="1.72" fill="#dcd7ba" opacity="0.55"/><circle cx="837.7" cy="27.4" r="0.87" fill="#dcd7ba" opacity="0.18"/><circle cx="12.9" cy="356.9" r="1.27" fill="#dcd7ba" opacity="0.50"/><circle cx="641.7" cy="236.2" r="1.52" fill="#dcd7ba" opacity="0.17"/><circle cx="1122.1" cy="399.4" r="1.42" fill="#dcd7ba" opacity="0.23"/><circle cx="1165.1" cy="159.7" r="1.49" fill="#dcd7ba" opacity="0.50"/><circle cx="962.0" cy="308.2" r="1.01" fill="#dcd7ba" opacity="0.48"/><circle cx="770.8" cy="338.7" r="1.66" fill="#dcd7ba" opacity="0.29"/><circle cx="646.9" cy="132.2" r="1.71" fill="#dcd7ba" opacity="0.24"/><circle cx="1151.5" cy="27.3" r="1.73" fill="#dcd7ba" opacity="0.34"/><circle cx="1719.6" cy="301.7" r="1.72" fill="#dcd7ba" opacity="0.13"/><circle cx="1555.6" cy="13.1" r="1.84" fill="#dcd7ba" opacity="0.49"/><circle cx="1919.1" cy="376.7" r="1.17" fill="#dcd7ba" opacity="0.34"/><circle cx="1290.6" cy="243.0" r="1.30" fill="#dcd7ba" opacity="0.39"/><circle cx="1561.1" cy="245.3" r="1.61" fill="#dcd7ba" opacity="0.54"/><circle cx="232.3" cy="105.6" r="1.16" fill="#dcd7ba" opacity="0.20"/><circle cx="358.1" cy="17.2" r="1.73" fill="#dcd7ba" opacity="0.25"/><circle cx="1050.6" cy="272.5" r="1.54" fill="#dcd7ba" opacity="0.26"/><circle cx="1669.4" cy="398.8" r="0.63" fill="#dcd7ba" opacity="0.47"/><circle cx="1632.2" cy="131.3" r="0.81" fill="#dcd7ba" opacity="0.53"/><circle cx="1419.6" cy="407.6" r="1.71" fill="#dcd7ba" opacity="0.40"/><circle cx="1450.1" cy="124.7" r="1.33" fill="#dcd7ba" opacity="0.31"/><circle cx="1833.2" cy="273.4" r="0.86" fill="#dcd7ba" opacity="0.41"/><circle cx="1111.8" cy="246.5" r="1.47" fill="#dcd7ba" opacity="0.40"/><circle cx="114.6" cy="150.5" r="0.78" fill="#dcd7ba" opacity="0.11"/><circle cx="1881.5" cy="95.8" r="0.91" fill="#dcd7ba" opacity="0.20"/><circle cx="1646.2" cy="406.2" r="1.03" fill="#dcd7ba" opacity="0.54"/><circle cx="1886.8" cy="7.2" r="1.05" fill="#dcd7ba" opacity="0.17"/><circle cx="1808.1" cy="16.4" r="1.36" fill="#dcd7ba" opacity="0.39"/><circle cx="89.2" cy="418.1" r="1.12" fill="#dcd7ba" opacity="0.17"/><circle cx="597.9" cy="388.3" r="1.28" fill="#dcd7ba" opacity="0.52"/><circle cx="368.5" cy="250.0" r="1.45" fill="#dcd7ba" opacity="0.40"/><circle cx="1184.4" cy="274.5" r="0.91" fill="#dcd7ba" opacity="0.14"/><circle cx="890.3" cy="195.9" r="1.40" fill="#dcd7ba" opacity="0.45"/><circle cx="417.8" cy="322.3" r="1.59" fill="#dcd7ba" opacity="0.54"/><circle cx="233.4" cy="397.2" r="1.42" fill="#dcd7ba" opacity="0.54"/><circle cx="1628.6" cy="248.6" r="1.42" fill="#dcd7ba" opacity="0.26"/><circle cx="672.0" cy="296.9" r="0.72" fill="#dcd7ba" opacity="0.29"/><circle cx="1567.6" cy="41.8" r="1.85" fill="#dcd7ba" opacity="0.42"/><circle cx="478.5" cy="250.5" r="1.68" fill="#dcd7ba" opacity="0.25"/><circle cx="1881.1" cy="280.4" r="0.61" fill="#dcd7ba" opacity="0.20"/><circle cx="1416.5" cy="240.9" r="1.80" fill="#dcd7ba" opacity="0.24"/><circle cx="783.4" cy="307.1" r="1.65" fill="#dcd7ba" opacity="0.29"/><circle cx="209.2" cy="244.0" r="1.31" fill="#dcd7ba" opacity="0.23"/><circle cx="1697.6" cy="292.4" r="0.96" fill="#dcd7ba" opacity="0.28"/><circle cx="1533.3" cy="398.4" r="1.79" fill="#dcd7ba" opacity="0.43"/><circle cx="247.4" cy="18.8" r="1.08" fill="#dcd7ba" opacity="0.25"/><circle cx="471.8" cy="51.4" r="1.61" fill="#dcd7ba" opacity="0.26"/><circle cx="1239.9" cy="285.0" r="1.53" fill="#dcd7ba" opacity="0.50"/><circle cx="1219.5" cy="269.0" r="1.28" fill="#dcd7ba" opacity="0.50"/><circle cx="1105.0" cy="121.3" r="1.54" fill="#dcd7ba" opacity="0.37"/><circle cx="1572.5" cy="72.7" r="0.92" fill="#dcd7ba" opacity="0.17"/><circle cx="742.8" cy="139.1" r="1.21" fill="#dcd7ba" opacity="0.11"/><circle cx="447.3" cy="383.6" r="1.82" fill="#dcd7ba" opacity="0.26"/><circle cx="1823.3" cy="169.9" r="1.29" fill="#dcd7ba" opacity="0.49"/><circle cx="452.5" cy="120.2" r="1.34" fill="#dcd7ba" opacity="0.20"/><circle cx="82.1" cy="61.9" r="1.27" fill="#dcd7ba" opacity="0.38"/><circle cx="978.5" cy="379.9" r="0.98" fill="#dcd7ba" opacity="0.43"/><circle cx="1735.4" cy="140.6" r="1.68" fill="#dcd7ba" opacity="0.14"/><circle cx="1239.2" cy="305.1" r="1.66" fill="#dcd7ba" opacity="0.30"/><circle cx="901.7" cy="46.6" r="1.55" fill="#dcd7ba" opacity="0.52"/><circle cx="1207.6" cy="288.6" r="0.73" fill="#dcd7ba" opacity="0.52"/><circle cx="1028.9" cy="152.8" r="1.88" fill="#dcd7ba" opacity="0.27"/><circle cx="263.8" cy="295.0" r="1.66" fill="#dcd7ba" opacity="0.45"/><circle cx="192.7" cy="321.1" r="1.17" fill="#dcd7ba" opacity="0.29"/><circle cx="1040.5" cy="256.3" r="1.62" fill="#dcd7ba" opacity="0.37"/><circle cx="1168.1" cy="56.6" r="1.68" fill="#dcd7ba" opacity="0.41"/><circle cx="1047.8" cy="170.4" r="0.97" fill="#dcd7ba" opacity="0.24"/><circle cx="1258.4" cy="294.4" r="1.10" fill="#dcd7ba" opacity="0.36"/><circle cx="1096.2" cy="140.3" r="1.36" fill="#dcd7ba" opacity="0.18"/><circle cx="106.6" cy="60.9" r="1.43" fill="#dcd7ba" opacity="0.25"/><circle cx="1372.3" cy="132.2" r="1.18" fill="#dcd7ba" opacity="0.10"/><circle cx="99.7" cy="139.8" r="1.30" fill="#dcd7ba" opacity="0.10"/><circle cx="380.4" cy="36.9" r="1.46" fill="#dcd7ba" opacity="0.12"/><circle cx="725.0" cy="54.4" r="0.62" fill="#dcd7ba" opacity="0.13"/><circle cx="585.7" cy="218.0" r="0.98" fill="#dcd7ba" opacity="0.42"/><circle cx="704.3" cy="152.5" r="1.34" fill="#dcd7ba" opacity="0.54"/><circle cx="708.8" cy="320.5" r="1.82" fill="#dcd7ba" opacity="0.47"/><circle cx="569.5" cy="62.1" r="1.15" fill="#dcd7ba" opacity="0.14"/><circle cx="59.8" cy="46.0" r="1.10" fill="#dcd7ba" opacity="0.28"/><circle cx="1177.4" cy="133.4" r="1.70" fill="#dcd7ba" opacity="0.26"/><circle cx="1674.8" cy="23.4" r="1.89" fill="#dcd7ba" opacity="0.36"/><circle cx="456.6" cy="86.9" r="0.86" fill="#dcd7ba" opacity="0.42"/><circle cx="886.0" cy="393.4" r="0.90" fill="#dcd7ba" opacity="0.15"/><circle cx="424.4" cy="353.3" r="0.97" fill="#dcd7ba" opacity="0.35"/><circle cx="1472.6" cy="280.9" r="0.90" fill="#dcd7ba" opacity="0.38"/><circle cx="881.9" cy="385.2" r="1.67" fill="#dcd7ba" opacity="0.10"/><path d="M-30 1080 L-30 470 L-30 440.2 L-6 440.6 L18 441.6 L42 443.3 L66 445.6 L90 448.5 L114 451.8 L138 455.5 L162 459.5 L186 463.8 L210 468.2 L234 472.7 L258 477.1 L282 481.3 L306 485.3 L330 489.0 L354 492.2 L378 494.9 L402 497.1 L426 498.6 L450 499.6 L474 499.8 L498 499.4 L522 498.4 L546 496.7 L570 494.4 L594 491.6 L618 488.3 L642 484.5 L666 480.5 L690 476.2 L714 471.8 L738 467.4 L762 463.0 L786 458.7 L810 454.7 L834 451.1 L858 447.9 L882 445.1 L906 443.0 L930 441.4 L954 440.5 L978 440.2 L1002 440.6 L1026 441.6 L1050 443.3 L1074 445.6 L1098 448.4 L1122 451.7 L1146 455.4 L1170 459.5 L1194 463.7 L1218 468.1 L1242 472.6 L1266 477.0 L1290 481.2 L1314 485.2 L1338 488.9 L1362 492.1 L1386 494.8 L1410 497.0 L1434 498.6 L1458 499.5 L1482 499.8 L1506 499.4 L1530 498.4 L1554 496.7 L1578 494.5 L1602 491.6 L1626 488.3 L1650 484.6 L1674 480.6 L1698 476.3 L1722 471.9 L1746 467.5 L1770 463.1 L1794 458.8 L1818 454.8 L1842 451.2 L1866 447.9 L1890 445.2 L1914 443.0 L1938 441.4 L1950 1080 Z" fill="#957fb8" opacity="0.50"/><path d="M-30 1080 L-30 588 L-30 546.7 L-6 548.4 L18 550.6 L42 553.3 L66 556.4 L90 559.9 L114 563.7 L138 567.9 L162 572.3 L186 576.9 L210 581.7 L234 586.5 L258 591.4 L282 596.2 L306 600.9 L330 605.5 L354 609.8 L378 613.8 L402 617.6 L426 620.9 L450 623.9 L474 626.3 L498 628.3 L522 629.8 L546 630.8 L570 631.2 L594 631.1 L618 630.4 L642 629.2 L666 627.5 L690 625.3 L714 622.6 L738 619.5 L762 616.0 L786 612.1 L810 607.9 L834 603.5 L858 598.9 L882 594.1 L906 589.3 L930 584.4 L954 579.6 L978 574.9 L1002 570.4 L1026 566.0 L1050 562.0 L1074 558.3 L1098 555.0 L1122 552.0 L1146 549.6 L1170 547.6 L1194 546.1 L1218 545.2 L1242 544.8 L1266 544.9 L1290 545.6 L1314 546.8 L1338 548.6 L1362 550.8 L1386 553.5 L1410 556.6 L1434 560.2 L1458 564.1 L1482 568.2 L1506 572.7 L1530 577.3 L1554 582.1 L1578 586.9 L1602 591.8 L1626 596.6 L1650 601.3 L1674 605.8 L1698 610.1 L1722 614.2 L1746 617.9 L1770 621.2 L1794 624.1 L1818 626.5 L1842 628.5 L1866 629.9 L1890 630.9 L1914 631.2 L1938 631.1 L1950 1080 Z" fill="#7e9cd8" opacity="0.45"/><path d="M-30 1080 L-30 706 L-30 701.1 L-6 697.4 L18 693.8 L42 690.3 L66 687.1 L90 684.0 L114 681.2 L138 678.7 L162 676.6 L186 674.8 L210 673.3 L234 672.3 L258 671.7 L282 671.4 L306 671.6 L330 672.2 L354 673.2 L378 674.6 L402 676.4 L426 678.5 L450 681.0 L474 683.7 L498 686.7 L522 690.0 L546 693.4 L570 697.0 L594 700.7 L618 704.5 L642 708.3 L666 712.0 L690 715.7 L714 719.3 L738 722.7 L762 725.9 L786 728.9 L810 731.5 L834 733.9 L858 736.0 L882 737.7 L906 739.0 L930 739.9 L954 740.4 L978 740.6 L1002 740.2 L1026 739.5 L1050 738.4 L1074 736.9 L1098 735.0 L1122 732.8 L1146 730.2 L1170 727.4 L1194 724.3 L1218 721.0 L1242 717.5 L1266 713.9 L1290 710.2 L1314 706.4 L1338 702.6 L1362 698.9 L1386 695.2 L1410 691.7 L1434 688.3 L1458 685.2 L1482 682.3 L1506 679.7 L1530 677.4 L1554 675.5 L1578 673.9 L1602 672.7 L1626 671.9 L1650 671.5 L1674 671.5 L1698 671.9 L1722 672.8 L1746 674.0 L1770 675.6 L1794 677.6 L1818 679.9 L1842 682.6 L1866 685.5 L1890 688.7 L1914 692.0 L1938 695.6 L1950 1080 Z" fill="#658594" opacity="0.40"/><path d="M-30 1080 L-30 824 L-30 827.2 L-6 830.4 L18 833.5 L42 836.4 L66 839.2 L90 841.8 L114 844.1 L138 846.1 L162 847.7 L186 849.0 L210 850.0 L234 850.5 L258 850.7 L282 850.5 L306 849.8 L330 848.8 L354 847.4 L378 845.7 L402 843.6 L426 841.3 L450 838.7 L474 835.9 L498 832.9 L522 829.7 L546 826.5 L570 823.3 L594 820.0 L618 816.8 L642 813.8 L666 810.8 L690 808.1 L714 805.6 L738 803.4 L762 801.5 L786 799.9 L810 798.7 L834 797.8 L858 797.4 L882 797.3 L906 797.7 L930 798.4 L954 799.5 L978 801.0 L1002 802.8 L1026 804.9 L1050 807.4 L1074 810.0 L1098 812.9 L1122 815.9 L1146 819.1 L1170 822.3 L1194 825.6 L1218 828.8 L1242 832.0 L1266 835.0 L1290 837.9 L1314 840.6 L1338 843.0 L1362 845.1 L1386 847.0 L1410 848.4 L1434 849.6 L1458 850.3 L1482 850.7 L1506 850.6 L1530 850.2 L1554 849.3 L1578 848.1 L1602 846.6 L1626 844.7 L1650 842.5 L1674 840.0 L1698 837.2 L1722 834.3 L1746 831.3 L1770 828.1 L1794 824.8 L1818 821.6 L1842 818.4 L1866 815.2 L1890 812.2 L1914 809.4 L1938 806.8 L1950 1080 Z" fill="#3f525d" opacity="0.35"/><path d="M-30 1080 L-30 942 L-30 963.2 L-6 960.7 L18 957.8 L42 954.6 L66 951.0 L90 947.3 L114 943.5 L138 939.7 L162 935.9 L186 932.2 L210 928.8 L234 925.6 L258 922.8 L282 920.3 L306 918.4 L330 917.0 L354 916.0 L378 915.7 L402 915.9 L426 916.7 L450 918.0 L474 919.8 L498 922.1 L522 924.8 L546 927.9 L570 931.3 L594 934.9 L618 938.7 L642 942.5 L666 946.4 L690 950.1 L714 953.7 L738 957.0 L762 960.0 L786 962.6 L810 964.8 L834 966.4 L858 967.6 L882 968.2 L906 968.3 L930 967.8 L954 966.7 L978 965.1 L1002 963.0 L1026 960.5 L1050 957.5 L1074 954.3 L1098 950.8 L1122 947.0 L1146 943.2 L1170 939.4 L1194 935.6 L1218 931.9 L1242 928.5 L1266 925.3 L1290 922.5 L1314 920.2 L1338 918.3 L1362 916.9 L1386 916.0 L1410 915.7 L1434 915.9 L1458 916.8 L1482 918.1 L1506 920.0 L1530 922.3 L1554 925.1 L1578 928.2 L1602 931.6 L1626 935.2 L1650 939.0 L1674 942.9 L1698 946.7 L1722 950.4 L1746 954.0 L1770 957.3 L1794 960.2 L1818 962.8 L1842 964.9 L1866 966.6 L1890 967.7 L1914 968.2 L1938 968.2 L1950 1080 Z" fill="#27323a" opacity="0.30"/><rect width="1920" height="1080" fill="url(#vig)"/>
</svg>
