<svg xmlns="http://www.w3.org/2000/svg" width="1920" height="1080" viewBox="0 0 1920 1080" preserveAspectRatio="xMidYMid slice">
<defs><linearGradient id="sky" x1="0" y1="0" x2="0" y2="1"><stop offset="0" stop-color="#0d0221"/><stop offset="0.45" stop-color="#1a0a3a"/><stop offset="0.78" stop-color="#2d0b52"/><stop offset="1" stop-color="#41197a"/></linearGradient><linearGradient id="sun" x1="0" y1="0" x2="0" y2="1"><stop offset="0" stop-color="#ffb68b"/><stop offset="0.5" stop-color="#ff9e64"/><stop offset="1" stop-color="#00e5ff"/></linearGradient><linearGradient id="floor" x1="0" y1="0" x2="0" y2="1"><stop offset="0" stop-color="#2e1255"/><stop offset="1" stop-color="#05030d"/></linearGradient><radialGradient id="vig" cx=".5" cy=".55" r=".85"><stop offset="0.5" stop-color="#000" stop-opacity="0"/><stop offset="1" stop-color="#05060a" stop-opacity="0.5"/></radialGradient></defs>
<rect width="1920" height="566" fill="url(#sky)"/><circle cx="299.0" cy="509.6" r="1.68" fill="#ffffff" opacity="0.38"/><circle cx="682.2" cy="190.6" r="1.30" fill="#ffffff" opacity="0.18"/><circle cx="659.6" cy="166.8" r="1.89" fill="#ffffff" opacity="0.11"/><circle cx="1493.9" cy="151.0" r="1.00" fill="#ffffff" opacity="0.41"/><circle cx="1855.2" cy="300.1" r="0.91" fill="#ffffff" opacity="0.45"/><circle cx="1072.5" cy="192.3" r="1.05" fill="#ffffff" opacity="0.41"/><circle cx="931.7" cy="456.5" r="0.79" fill="#ffffff" opacity="0.39"/><circle cx="242.8" cy="417.6" r="1.30" fill="#ffffff" opacity="0.38"/><circle cx="407.6" cy="342.6" r="1.60" fill="#ffffff" opacity="0.16"/><circle cx="549.3" cy="38.7" r="1.38" fill="#ffffff" opacity="0.47"/><circle cx="1214.5" cy="316.7" r="1.66" fill="#ffffff" opacity="0.18"/><circle cx="816.9" cy="107.0" r="1.79" fill="#ffffff" opacity="0.11"/><circle cx="1492.2" cy="106.9" r="1.41" fill="#ffffff" opacity="0.25"/><circle cx="57.0" cy="479.5" r="1.46" fill="#ffffff" opacity="0.36"/><circle cx="330.5" cy="62.4" r="1.34" fill="#ffffff" opacity="0.14"/><circle cx="1173.8" cy="120.5" r="1.74" fill="#ffffff" opacity="0.25"/><circle cx="750.1" cy="413.9" r="0.79" fill="#ffffff" opacity="0.19"/><circle cx="542.4" cy="520.8" r="0.94" fill="#ffffff" opacity="0.11"/><circle cx="1667.0" cy="57.2" r="1.63" fill="#ffffff" opacity="0.28"/><circle cx="70.7" cy="83.0" r="0.63" fill="#ffffff" opacity="0.21"/><circle cx="285.4" cy="273.9" r="1.07" fill="#ffffff" opacity="0.37"/><circle cx="911.4" cy="448.0" r="0.76" fill="#ffffff" opacity="0.14"/><circle cx="1421.7" cy="32.5" r="1.69" fill="#ffffff" opacity="0.13"/><circle cx="130.7" cy="250.5" r="0.78" fill="#ffffff" opacity="0.46"/><circle cx="1079.2" cy="11.4" r="1.72" fill="#ffffff" opacity="0.13"/><circle cx="1062.1" cy="250.5" r="0.71" fill="#ffffff" opacity="0.15"/><circle cx="662.5" cy="65.2" r="1.25" fill="#ffffff" opacity="0.55"/><circle cx="1850.5" cy="494.9" r="1.19" fill="#ffffff" opacity="0.12"/><circle cx="170.1" cy="1.1" r="1.48" fill="#ffffff" opacity="0.52"/><circle cx="690.9" cy="450.3" r="0.67" fill="#ffffff" opacity="0.54"/><circle cx="1848.8" cy="353.2" r="0.85" fill="#ffffff" opacity="0.43"/><circle cx="563.4" cy="21.1" r="0.97" fill="#ffffff" opacity="0.41"/><circle cx="574.9" cy="221.2" r="1.47" fill="#ffffff" opacity="0.41"/><circle cx="71.5" cy="7.6" r="0.87" fill="#ffffff" opacity="0.14"/><circle cx="1064.0" cy="399.1" r="0.92" fill="#ffffff" opacity="0.31"/><circle cx="1.9" cy="477.0" r="1.22" fill="#ffffff" opacity="0.47"/><circle cx="1228.5" cy="76.0" r="1.34" fill="#ffffff" opacity="0.53"/><circle cx="738.8" cy="438.9" r="1.16" fill="#ffffff" opacity="0.14"/><circle cx="1141.8" cy="214.5" r="0.62" fill="#ffffff" opacity="0.37"/><circle cx="709.1" cy="485.5" r="1.01" fill="#ffffff" opacity="0.53"/><circle cx="1542.2" cy="179.8" r="0.81" fill="#ffffff" opacity="0.29"/><circle cx="1005.1" cy="441.2" r="0.82" fill="#ffffff" opacity="0.47"/><circle cx="140.9" cy="33.7" r="0.70" fill="#ffffff" opacity="0.13"/><circle cx="299.9" cy="523.4" r="1.23" fill="#ffffff" opacity="0.40"/><circle cx="900.5" cy="364.7" r="1.53" fill="#ffffff" opacity="0.18"/><circle cx="1087.1" cy="389.2" r="1.64" fill="#ffffff" opacity="0.16"/><circle cx="63.1" cy="181.6" r="1.72" fill="#ffffff" opacity="0.21"/><circle cx="1466.3" cy="256.1" r="1.18" fill="#ffffff" opacity="0.20"/><circle cx="1265.6" cy="122.1" r="1.89" fill="#ffffff" opacity="0.45"/><circle cx="653.6" cy="253.9" r="1.80" fill="#ffffff" opacity="0.13"/><circle cx="682.3" cy="69.3" r="1.09" fill="#ffffff" opacity="0.31"/><circle cx="1420.0" cy="419.7" r="1.71" fill="#ffffff" opacity="0.42"/><circle cx="1023.5" cy="112.1" r="1.53" fill="#ffffff" opacity="0.13"/><circle cx="26.6" cy="253.8" r="1.15" fill="#ffffff" opacity="0.53"/><circle cx="1623.7" cy="15.8" r="0.94" fill="#ffffff" opacity="0.30"/><circle cx="989.2" cy="51.6" r="1.45" fill="#ffffff" opacity="0.54"/><circle cx="1823.7" cy="463.8" r="1.03" fill="#ffffff" opacity="0.51"/><circle cx="1057.8" cy="143.8" r="1.55" fill="#ffffff" opacity="0.47"/><circle cx="420.0" cy="516.6" r="1.34" fill="#ffffff" opacity="0.22"/><circle cx="62.1" cy="97.5" r="1.37" fill="#ffffff" opacity="0.11"/><circle cx="181.4" cy="64.9" r="0.96" fill="#ffffff" opacity="0.46"/><circle cx="86.2" cy="317.7" r="0.63" fill="#ffffff" opacity="0.41"/><circle cx="968.8" cy="513.7" r="1.48" fill="#ffffff" opacity="0.22"/><circle cx="48.7" cy="171.0" r="1.88" fill="#ffffff" opacity="0.40"/><circle cx="939.6" cy="337.2" r="1.11" fill="#ffffff" opacity="0.51"/><circle cx="771.6" cy="79.0" r="0.86" fill="#ffffff" opacity="0.42"/><circle cx="135.1" cy="271.6" r="1.53" fill="#ffffff" opacity="0.26"/><circle cx="1253.7" cy="168.0" r="1.48" fill="#ffffff" opacity="0.51"/><circle cx="368.8" cy="211.1" r="1.77" fill="#ffffff" opacity="0.14"/><circle cx="387.1" cy="499.5" r="0.87" fill="#ffffff" opacity="0.29"/><circle cx="917.4" cy="514.3" r="1.88" fill="#ffffff" opacity="0.20"/><circle cx="469.4" cy="186.3" r="1.66" fill="#ffffff" opacity="0.33"/><circle cx="1732.4" cy="79.5" r="0.74" fill="#ffffff" opacity="0.29"/><circle cx="1031.5" cy="40.5" r="0.75" fill="#ffffff" opacity="0.40"/><circle cx="549.6" cy="232.1" r="1.49" fill="#ffffff" opacity="0.23"/><circle cx="1790.0" cy="326.7" r="1.64" fill="#ffffff" opacity="0.16"/><circle cx="272.5" cy="465.5" r="1.60" fill="#ffffff" opacity="0.14"/><circle cx="1279.6" cy="360.7" r="1.78" fill="#ffffff" opacity="0.14"/><circle cx="629.9" cy="335.6" r="1.49" fill="#ffffff" opacity="0.26"/><circle cx="1067.3" cy="520.7" r="1.03" fill="#ffffff" opacity="0.41"/><circle cx="124.2" cy="507.1" r="0.64" fill="#ffffff" opacity="0.14"/><circle cx="284.5" cy="397.7" r="1.02" fill="#ffffff" opacity="0.43"/><circle cx="1406.6" cy="481.9" r="1.47" fill="#ffffff" opacity="0.49"/><circle cx="1409.9" cy="244.3" r="1.21" fill="#ffffff" opacity="0.45"/><circle cx="1789.5" cy="420.8" r="1.35" fill="#ffffff" opacity="0.45"/><circle cx="355.4" cy="162.8" r="1.83" fill="#ffffff" opacity="0.20"/><circle cx="1885.8" cy="238.0" r="0.70" fill="#ffffff" opacity="0.34"/><circle cx="101.7" cy="328.1" r="0.60" fill="#ffffff" opacity="0.37"/><circle cx="1628.8" cy="154.4" r="1.04" fill="#ffffff" opacity="0.17"/><circle cx="1600.4" cy="161.9" r="0.92" fill="#ffffff" opacity="0.39"/><circle cx="414.4" cy="174.8" r="1.62" fill="#ffffff" opacity="0.13"/><circle cx="1001.4" cy="63.2" r="1.15" fill="#ffffff" opacity="0.22"/><circle cx="1295.7" cy="308.2" r="1.89" fill="#ffffff" opacity="0.40"/><circle cx="1384.8" cy="192.9" r="0.93" fill="#ffffff" opacity="0.51"/><circle cx="1023.5" cy="469.2" r="0.66" fill="#ffffff" opacity="0.17"/><circle cx="1489.8" cy="342.2" r="0.97" fill="#ffffff" opacity="0.40"/><circle cx="1048.1" cy="293.3" r="1.51" fill="#ffffff" opacity="0.47"/><circle cx="1250.9" cy="451.5" r="0.83" fill="#ffffff" opacity="0.49"/><circle cx="1668.3" cy="144.9" r="1.10" fill="#ffffff" opacity="0.17"/><circle cx="551.1" cy="221.5" r="0.94" fill="#ffffff" opacity="0.46"/><circle cx="1544.5" cy="97.2" r="1.36" fill="#ffffff" opacity="0.37"/><circle cx="1772.3" cy="133.1" r="0.76" fill="#ffffff" opacity="0.22"/><circle cx="470.0" cy="287.9" r="1.03" fill="#ffffff" opacity="0.34"/><circle cx="1383.9" cy="302.3" r="1.32" fill="#ffffff" opacity="0.21"/><circle cx="402.9" cy="8.8" r="0.97" fill="#ffffff" opacity="0.34"/><circle cx="1881.5" cy="316.4" r="1.65" fill="#ffffff" opacity="0.28"/><circle cx="356.0" cy="463.1" r="1.54" fill="#ffffff" opacity="0.29"/><circle cx="488.9" cy="364.0" r="0.91" fill="#ffffff" opacity="0.32"/><circle cx="449.9" cy="304.5" r="1.15" fill="#ffffff" opacity="0.18"/><circle cx="422.0" cy="334.5" r="0.69" fill="#ffffff" opacity="0.34"/><circle cx="1440.9" cy="469.0" r="0.76" fill="#ffffff" opacity="0.36"/><circle cx="683.2" cy="366.5" r="0.86" fill="#ffffff" opacity="0.53"/><circle cx="244.5" cy="199.9" r="1.48" fill="#ffffff" opacity="0.44"/><circle cx="1370.2" cy="213.6" r="1.14" fill="#ffffff" opacity="0.41"/><circle cx="1798.6" cy="72.4" r="1.45" fill="#ffffff" opacity="0.12"/><circle cx="1170.8" cy="328.4" r="0.85" fill="#ffffff" opacity="0.32"/><circle cx="101.4" cy="177.1" r="1.67" fill="#ffffff" opacity="0.34"/><circle cx="209.8" cy="98.4" r="1.88" fill="#ffffff" opacity="0.14"/><circle cx="596.4" cy="508.5" r="1.00" fill="#ffffff" opacity="0.21"/><circle cx="1866.3" cy="364.1" r="1.43" fill="#ffffff" opacity="0.17"/><circle cx="150.4" cy="189.9" r="0.69" fill="#ffffff" opacity="0.22"/><circle cx="329.0" cy="158.2" r="0.96" fill="#ffffff" opacity="0.48"/><circle cx="1715.3" cy="373.0" r="0.75" fill="#ffffff" opacity="0.17"/><circle cx="1134.1" cy="55.2" r="1.84" fill="#ffffff" opacity="0.11"/><circle cx="1742.4" cy="427.5" r="1.19" fill="#ffffff" opacity="0.54"/><circle cx="945.4" cy="475.2" r="1.71" fill="#ffffff" opacity="0.31"/><circle cx="260.0" cy="433.2" r="0.86" fill="#ffffff" opacity="0.40"/><circle cx="762.9" cy="225.6" r="0.75" fill="#ffffff" opacity="0.31"/><circle cx="598.9" cy="297.4" r="1.74" fill="#ffffff" opacity="0.11"/><circle cx="1217.5" cy="22.7" r="1.04" fill="#ffffff" opacity="0.44"/><circle cx="1027.0" cy="57.8" r="0.62" fill="#ffffff" opacity="0.20"/><circle cx="924.2" cy="62.8" r="1.26" fill="#ffffff" opacity="0.11"/><circle cx="353.7" cy="271.1" r="1.28" fill="#ffffff" opacity="0.15"/><circle cx="97.2" cy="222.9" r="0.94" fill="#ffffff" opacity="0.17"/><circle cx="467.1" cy="98.2" r="1.09" fill="#ffffff" opacity="0.16"/><circle cx="1584.7" cy="383.4" r="1.16" fill="#ffffff" opacity="0.20"/><circle cx="588.7" cy="52.9" r="1.59" fill="#ffffff" opacity="0.28"/><circle cx="1545.1" cy="117.2" r="1.83" fill="#ffffff" opacity="0.19"/><circle cx="181.7" cy="114.9" r="0.98" fill="#ffffff" opacity="0.52"/><circle cx="159.2" cy="60.8" r="0.90" fill="#ffffff" opacity="0.37"/><clipPath id="sc"><circle cx="960" cy="470" r="176"/></clipPath><g clip-path="url(#sc)"><rect x="784" y="294" width="352" height="352" fill="url(#sun)"/><rect x="784" y="416" width="352" height="4" fill="#1a0a3a"/><rect x="784" y="438" width="352" height="6" fill="#1a0a3a"/><rect x="784" y="460" width="352" height="8" fill="#1a0a3a"/><rect x="784" y="482" width="352" height="10" fill="#1a0a3a"/><rect x="784" y="504" width="352" height="12" fill="#1a0a3a"/><rect x="784" y="526" width="352" height="14" fill="#1a0a3a"/><rect x="784" y="548" width="352" height="16" fill="#1a0a3a"/></g><path d="M-30 1080 L-30.0 555.5 L69.0 528.3 L168.0 551.8 L267.0 517.0 L366.0 499.3 L465.0 528.3 L564.0 513.8 L663.0 542.1 L762.0 510.2 L861.0 519.1 L960.0 536.0 L1059.0 497.1 L1158.0 524.7 L1257.0 563.8 L1356.0 553.3 L1455.0 545.9 L1554.0 531.6 L1653.0 549.2 L1752.0 536.1 L1851.0 549.4 L1950.0 565.1 L1950 1080 Z" fill="#03697a"/><rect y="566" width="1920" height="514" fill="url(#floor)"/><line x1="0" y1="566" x2="1920" y2="566" stroke="#ff2d95" stroke-width="2" opacity="0.5"/><line x1="960" y1="566" x2="-1140" y2="1080" stroke="#ff2d95" stroke-width="1.4" opacity="0.32"/><line x1="960" y1="566" x2="-990" y2="1080" stroke="#ff2d95" stroke-width="1.4" opacity="0.32"/><line x1="960" y1="566" x2="-840" y2="1080" stroke="#ff2d95" stroke-width="1.4" opacity="0.32"/><line x1="960" y1="566" x2="-690" y2="1080" stroke="#ff2d95" stroke-width="1.4" opacity="0.32"/><line x1="960" y1="566" x2="-540" y2="1080" stroke="#ff2d95" stroke-width="1.4" opacity="0.32"/><line x1="960" y1="566" x2="-390" y2="1080" stroke="#ff2d95" stroke-width="1.4" opacity="0.32"/><line x1="960" y1="566" x2="-240" y2="1080" stroke="#ff2d95" stroke-width="1.4" opacity="0.32"/><line x1="960" y1="566" x2="-90" y2="1080" stroke="#ff2d95" stroke-width="1.4" opacity="0.32"/><line x1="960" y1="566" x2="60" y2="1080" stroke="#ff2d95" stroke-width="1.4" opacity="0.32"/><line x1="960" y1="566" x2="210" y2="1080" stroke="#ff2d95" stroke-width="1.4" opacity="0.32"/><line x1="960" y1="566" x2="360" y2="1080" stroke="#ff2d95" stroke-width="1.4" opacity="0.32"/><line x1="960" y1="566" x2="510" y2="1080" stroke="#ff2d95" stroke-width="1.4" opacity="0.32"/><line x1="960" y1="566" x2="660" y2="1080" stroke="#ff2d95" stroke-width="1.4" opacity="0.32"/><line x1="960" y1="566" x2="810" y2="1080" stroke="#ff2d95" stroke-width="1.4" opacity="0.32"/><line x1="960" y1="566" x2="960" y2="1080" stroke="#ff2d95" stroke-width="1.4" opacity="0.32"/><line x1="960" y1="566" x2="1110" y2="1080" stroke="#ff2d95" stroke-width="1.4" opacity="0.32"/><line x1="960" y1="566" x2="1260" y2="1080" stroke="#ff2d95" stroke-width="1.4" opacity="0.32"/><line x1="960" y1="566" x2="1410" y2="1080" stroke="#ff2d95" stroke-width="1.4" opacity="0.32"/><line x1="960" y1="566" x2="1560" y2="1080" stroke="#ff2d95" stroke-width="1.4" opacity="0.32"/><line x1="960" y1="566" x2="1710" y2="1080" stroke="#ff2d95" stroke-width="1.4" opacity="0.32"/><line x1="960" y1="566" x2="1860" y2="1080" stroke="#ff2d95" stroke-width="1.4" opacity="0.32"/><line x1="960" y1="566" x2="2010" y2="1080" stroke="#ff2d95" stroke-width="1.4" opacity="0.32"/><line x1="960" y1="566" x2="2160" y2="1080" stroke="#ff2d95" stroke-width="1.4" opacity="0.32"/><line x1="960" y1="566" x2="2310" y2="1080" stroke="#ff2d95" stroke-width="1.4" opacity="0.32"/><line x1="960" y1="566" x2="2460" y2="1080" stroke="#ff2d95" stroke-width="1.4" opacity="0.32"/><line x1="960" y1="566" x2="2610" y2="1080" stroke="#ff2d95" stroke-width="1.4" opacity="0.32"/><line x1="960" y1="566" x2="2760" y2="1080" stroke="#ff2d95" stroke-width="1.4" opacity="0.32"/><line x1="960" y1="566" x2="2910" y2="1080" stroke="#ff2d95" stroke-width="1.4" opacity="0.32"/><line x1="960" y1="566" x2="3060" y2="1080" stroke="#ff2d95" stroke-width="1.4" opacity="0.32"/><line x1="0" y1="568.6" x2="1920" y2="568.6" stroke="#ff2d95" stroke-width="1.4" opacity="0.33"/><line x1="0" y1="575.9" x2="1920" y2="575.9" stroke="#ff2d95" stroke-width="1.4" opacity="0.31"/><line x1="0" y1="587.4" x2="1920" y2="587.4" stroke="#ff2d95" stroke-width="1.4" opacity="0.30"/><line x1="0" y1="602.9" x2="1920" y2="602.9" stroke="#ff2d95" stroke-width="1.4" opacity="0.28"/><line x1="0" y1="622.4" x2="1920" y2="622.4" stroke="#ff2d95" stroke-width="1.4" opacity="0.27"/><line x1="0" y1="645.7" x2="1920" y2="645.7" stroke="#ff2d95" stroke-width="1.4" opacity="0.26"/><line x1="0" y1="672.9" x2="1920" y2="672.9" stroke="#ff2d95" stroke-width="1.4" opacity="0.24"/><line x1="0" y1="703.7" x2="1920" y2="703.7" stroke="#ff2d95" stroke-width="1.4" opacity="0.23"/><line x1="0" y1="738.3" x2="1920" y2="738.3" stroke="#ff2d95" stroke-width="1.4" opacity="0.21"/><line x1="0" y1="776.4" x2="1920" y2="776.4" stroke="#ff2d95" stroke-width="1.4" opacity="0.20"/><line x1="0" y1="818.2" x2="1920" y2="818.2" stroke="#ff2d95" stroke-width="1.4" opacity="0.19"/><line x1="0" y1="863.6" x2="1920" y2="863.6" stroke="#ff2d95" stroke-width="1.4" opacity="0.17"/><line x1="0" y1="912.4" x2="1920" y2="912.4" stroke="#ff2d95" stroke-width="1.4" opacity="0.16"/><line x1="0" y1="964.8" x2="1920" y2="964.8" stroke="#ff2d95" stroke-width="1.4" opacity="0.14"/><line x1="0" y1="1020.7" x2="1920" y2="1020.7" stroke="#ff2d95" stroke-width="1.4" opacity="0.13"/><line x1="0" y1="1080.0" x2="1920" y2="1080.0" stroke="#ff2d95" stroke-width="1.4" opacity="0.12"/><rect width="1920" height="1080" fill="url(#vig)"/>
</svg>
