<svg xmlns="http://www.w3.org/2000/svg" width="1920" height="1080" viewBox="0 0 1920 1080" preserveAspectRatio="xMidYMid slice">
<defs>
<linearGradient id="sky" x1="0" y1="0" x2="0" y2="1"><stop offset="0" stop-color="#0b0b12"/><stop offset="0.5" stop-color="#12121c"/><stop offset="1" stop-color="#0a0a10"/></linearGradient>
<radialGradient id="n1"><stop offset="0" stop-color="#7aa2f7" stop-opacity="0.3"/><stop offset=".5" stop-color="#7aa2f7" stop-opacity="0.09"/><stop offset="1" stop-color="#7aa2f7" stop-opacity="0"/></radialGradient>
<radialGradient id="n2"><stop offset="0" stop-color="#bb9af7" stop-opacity="0.26"/><stop offset=".5" stop-color="#bb9af7" stop-opacity="0.078"/><stop offset="1" stop-color="#bb9af7" stop-opacity="0"/></radialGradient>
<radialGradient id="n3"><stop offset="0" stop-color="#7dcfff" stop-opacity="0.18"/><stop offset=".5" stop-color="#7dcfff" stop-opacity="0.054"/><stop offset="1" stop-color="#7dcfff" stop-opacity="0"/></radialGradient>
<radialGradient id="bg1"><stop offset="0" stop-color="#c0caf5" stop-opacity="0.5"/><stop offset=".5" stop-color="#c0caf5" stop-opacity="0.15"/><stop offset="1" stop-color="#c0caf5" stop-opacity="0"/></radialGradient>
<linearGradient id="milky" x1="0" y1="0" x2="1" y2="1"><stop offset="0" stop-color="#7aa2f7" stop-opacity="0"/><stop offset=".5" stop-color="#c0caf5" stop-opacity=".1"/><stop offset="1" stop-color="#bb9af7" stop-opacity="0"/></linearGradient>
<filter id="soft" x="-15%" y="-30%" width="130%" height="160%"><feGaussianBlur stdDeviation="34"/></filter>
<radialGradient id="v" cx=".5" cy=".5" r=".78"><stop offset="0.3" stop-color="#0b0b12" stop-opacity="0"/><stop offset="1" stop-color="#050508" stop-opacity="0.72"/></radialGradient>
</defs>
<rect width="1920" height="1080" fill="url(#sky)"/>
<ellipse cx="960" cy="500" rx="1180" ry="230" fill="url(#milky)" filter="url(#soft)" transform="rotate(-19 960 500)"/>
<ellipse cx="420" cy="300" rx="640" ry="480" fill="url(#n1)"/>
<ellipse cx="1520" cy="740" rx="700" ry="520" fill="url(#n2)"/>
<ellipse cx="1180" cy="220" rx="520" ry="360" fill="url(#n3)"/>
<circle cx="486.1" cy="857.3" r="1.12" fill="#7dcfff" opacity="0.44"/><circle cx="1677.6" cy="111.1" r="1.41" fill="#c0caf5" opacity="0.66"/><circle cx="1421.9" cy="785.3" r="1.41" fill="#bb9af7" opacity="0.23"/><circle cx="1616.7" cy="310.3" r="1.55" fill="#bb9af7" opacity="0.3"/><circle cx="1211.2" cy="629.8" r="1.34" fill="#7dcfff" opacity="0.52"/><circle cx="1436.5" cy="601.6" r="0.87" fill="#c0caf5" opacity="0.23"/><circle cx="1837.4" cy="496.7" r="0.58" fill="#c0caf5" opacity="0.44"/><circle cx="871.3" cy="748.8" r="1.05" fill="#bb9af7" opacity="0.4"/><circle cx="1833.7" cy="879.8" r="0.68" fill="#c0caf5" opacity="0.64"/><circle cx="797.9" cy="127.2" r="0.91" fill="#7dcfff" opacity="0.7"/><circle cx="1469.1" cy="1060" r="0.73" fill="#7dcfff" opacity="0.48"/><circle cx="1523.5" cy="437.4" r="1.75" fill="#e0af68" opacity="0.41"/><circle cx="1818.3" cy="814.1" r="1.45" fill="#c0caf5" opacity="0.26"/><circle cx="736.9" cy="605.3" r="1.7" fill="#e0af68" opacity="0.35"/><circle cx="1666.2" cy="1060.2" r="1.4" fill="#c0caf5" opacity="0.26"/><circle cx="1436.8" cy="516.1" r="0.7" fill="#bb9af7" opacity="0.25"/><circle cx="1062.6" cy="958.6" r="1.22" fill="#e0af68" opacity="0.66"/><circle cx="1196.2" cy="212.8" r="1.26" fill="#c0caf5" opacity="0.6"/><circle cx="251.9" cy="930.3" r="1.59" fill="#c0caf5" opacity="0.39"/><circle cx="1239.5" cy="819.4" r="1.19" fill="#bb9af7" opacity="0.55"/><circle cx="338" cy="434.6" r="1.03" fill="#c0caf5" opacity="0.67"/><circle cx="1685.7" cy="701.6" r="0.94" fill="#c0caf5" opacity="0.22"/><circle cx="415.5" cy="87.6" r="0.93" fill="#c0caf5" opacity="0.34"/><circle cx="638.5" cy="356.6" r="0.77" fill="#c0caf5" opacity="0.39"/><circle cx="980.8" cy="319.5" r="1.79" fill="#c0caf5" opacity="0.17"/><circle cx="1675.6" cy="923.2" r="1.3" fill="#c0caf5" opacity="0.59"/><circle cx="1636" cy="739.5" r="1.68" fill="#c0caf5" opacity="0.67"/><circle cx="662.5" cy="20.6" r="0.88" fill="#e0af68" opacity="0.75"/><circle cx="1126.5" cy="318.5" r="1.16" fill="#c0caf5" opacity="0.7"/><circle cx="1874" cy="757" r="0.62" fill="#c0caf5" opacity="0.65"/><circle cx="717.1" cy="492.9" r="0.89" fill="#c0caf5" opacity="0.22"/><circle cx="1146.1" cy="43.9" r="1.63" fill="#e0af68" opacity="0.39"/><circle cx="857.7" cy="764.8" r="1.26" fill="#c0caf5" opacity="0.21"/><circle cx="339.6" cy="78" r="0.59" fill="#c0caf5" opacity="0.22"/><circle cx="699.4" cy="485.6" r="1.86" fill="#c0caf5" opacity="0.49"/><circle cx="1630.2" cy="694.1" r="0.72" fill="#c0caf5" opacity="0.73"/><circle cx="1422.9" cy="543.2" r="1.15" fill="#c0caf5" opacity="0.2"/><circle cx="1165.5" cy="692.9" r="1.58" fill="#c0caf5" opacity="0.16"/><circle cx="1854.2" cy="967.3" r="1.84" fill="#bb9af7" opacity="0.64"/><circle cx="976.6" cy="520.6" r="1.69" fill="#c0caf5" opacity="0.17"/><circle cx="569.9" cy="435.8" r="0.62" fill="#e0af68" opacity="0.16"/><circle cx="1072.9" cy="505.1" r="0.56" fill="#c0caf5" opacity="0.41"/><circle cx="564.5" cy="73.6" r="0.92" fill="#bb9af7" opacity="0.72"/><circle cx="711.3" cy="441" r="1.44" fill="#c0caf5" opacity="0.38"/><circle cx="832.5" cy="211.1" r="1.54" fill="#c0caf5" opacity="0.38"/><circle cx="641.4" cy="247.8" r="0.95" fill="#bb9af7" opacity="0.67"/><circle cx="1735.9" cy="880.5" r="1.3" fill="#c0caf5" opacity="0.62"/><circle cx="1714.6" cy="402.3" r="0.94" fill="#c0caf5" opacity="0.59"/><circle cx="132.6" cy="468.1" r="0.85" fill="#e0af68" opacity="0.76"/><circle cx="443.7" cy="658.9" r="1.23" fill="#e0af68" opacity="0.48"/><circle cx="1341.8" cy="388.2" r="1.76" fill="#c0caf5" opacity="0.36"/><circle cx="1678.8" cy="665.6" r="0.58" fill="#bb9af7" opacity="0.37"/><circle cx="1575.2" cy="362.3" r="0.77" fill="#c0caf5" opacity="0.43"/><circle cx="1755.7" cy="714.4" r="1.16" fill="#bb9af7" opacity="0.38"/><circle cx="1412.8" cy="592.2" r="1.03" fill="#bb9af7" opacity="0.34"/><circle cx="1268.9" cy="348.4" r="1.19" fill="#c0caf5" opacity="0.63"/><circle cx="561.9" cy="821.2" r="1.05" fill="#e0af68" opacity="0.69"/><circle cx="550.8" cy="197.1" r="0.97" fill="#e0af68" opacity="0.71"/><circle cx="689.5" cy="35.3" r="0.72" fill="#c0caf5" opacity="0.69"/><circle cx="801.5" cy="382.8" r="1.74" fill="#7dcfff" opacity="0.44"/><circle cx="1699.7" cy="562.6" r="1.41" fill="#e0af68" opacity="0.76"/><circle cx="1126.6" cy="484.2" r="1.75" fill="#c0caf5" opacity="0.63"/><circle cx="982.7" cy="638" r="1.28" fill="#bb9af7" opacity="0.39"/><circle cx="1601.3" cy="690.5" r="1.64" fill="#c0caf5" opacity="0.47"/><circle cx="122.2" cy="1055.6" r="0.71" fill="#c0caf5" opacity="0.61"/><circle cx="1645.7" cy="194.2" r="0.59" fill="#c0caf5" opacity="0.26"/><circle cx="1331.1" cy="851.4" r="1.31" fill="#bb9af7" opacity="0.3"/><circle cx="1868.3" cy="998.2" r="1.45" fill="#c0caf5" opacity="0.4"/><circle cx="1090.2" cy="414.3" r="1.25" fill="#bb9af7" opacity="0.54"/><circle cx="1911.7" cy="305.5" r="1.96" fill="#bb9af7" opacity="0.55"/><circle cx="1326.1" cy="260.9" r="1.31" fill="#bb9af7" opacity="0.31"/><circle cx="937.1" cy="486.7" r="0.93" fill="#bb9af7" opacity="0.4"/><circle cx="1604.5" cy="1072.5" r="1.52" fill="#c0caf5" opacity="0.76"/><circle cx="1462.9" cy="566.1" r="0.57" fill="#e0af68" opacity="0.44"/><circle cx="1893" cy="1007.1" r="0.75" fill="#c0caf5" opacity="0.21"/><circle cx="1842.9" cy="807.2" r="1.87" fill="#c0caf5" opacity="0.54"/><circle cx="1747.5" cy="616.9" r="0.94" fill="#bb9af7" opacity="0.62"/><circle cx="49.5" cy="284.3" r="1.49" fill="#bb9af7" opacity="0.56"/><circle cx="1344.1" cy="211.1" r="1.17" fill="#c0caf5" opacity="0.21"/><circle cx="1174.6" cy="14.6" r="1.66" fill="#c0caf5" opacity="0.42"/><circle cx="1859.9" cy="407" r="0.86" fill="#e0af68" opacity="0.6"/><circle cx="757.6" cy="711.3" r="1.32" fill="#c0caf5" opacity="0.21"/><circle cx="1230.6" cy="240.5" r="1.89" fill="#c0caf5" opacity="0.59"/><circle cx="189.5" cy="185.6" r="1.21" fill="#c0caf5" opacity="0.7"/><circle cx="1595.6" cy="327.5" r="1.78" fill="#7dcfff" opacity="0.3"/><circle cx="371.1" cy="438.6" r="1.5" fill="#c0caf5" opacity="0.3"/><circle cx="927.1" cy="64" r="1.46" fill="#7dcfff" opacity="0.38"/><circle cx="544.1" cy="210.4" r="0.99" fill="#c0caf5" opacity="0.38"/><circle cx="1482.5" cy="768" r="0.8" fill="#7dcfff" opacity="0.19"/><circle cx="1096.1" cy="824.6" r="0.57" fill="#c0caf5" opacity="0.6"/><circle cx="1761.9" cy="785.7" r="1.73" fill="#bb9af7" opacity="0.53"/><circle cx="431.8" cy="267.1" r="0.74" fill="#c0caf5" opacity="0.72"/><circle cx="960.7" cy="518.5" r="1.7" fill="#c0caf5" opacity="0.24"/><circle cx="1354.8" cy="536.3" r="1.02" fill="#c0caf5" opacity="0.61"/><circle cx="477.6" cy="19" r="1.73" fill="#c0caf5" opacity="0.5"/><circle cx="135.7" cy="295.8" r="1.61" fill="#c0caf5" opacity="0.43"/><circle cx="814.8" cy="620.5" r="1.97" fill="#7dcfff" opacity="0.42"/><circle cx="114.9" cy="158.7" r="1.91" fill="#c0caf5" opacity="0.35"/><circle cx="1265" cy="653.5" r="1.91" fill="#c0caf5" opacity="0.41"/><circle cx="1205.5" cy="653" r="1.44" fill="#7dcfff" opacity="0.46"/><circle cx="737.2" cy="728.2" r="0.59" fill="#c0caf5" opacity="0.24"/><circle cx="1152.3" cy="51.5" r="1.99" fill="#c0caf5" opacity="0.43"/><circle cx="1573.9" cy="633.9" r="1.43" fill="#bb9af7" opacity="0.36"/><circle cx="1150.9" cy="803.1" r="1.35" fill="#bb9af7" opacity="0.27"/><circle cx="550.2" cy="695.2" r="0.94" fill="#c0caf5" opacity="0.16"/><circle cx="1822.3" cy="627" r="0.56" fill="#c0caf5" opacity="0.23"/><circle cx="906.6" cy="527.8" r="1.95" fill="#c0caf5" opacity="0.5"/><circle cx="97.2" cy="93" r="1.04" fill="#e0af68" opacity="0.57"/><circle cx="1167.9" cy="577.3" r="1.36" fill="#c0caf5" opacity="0.16"/><circle cx="1408.3" cy="850.2" r="1.13" fill="#7dcfff" opacity="0.72"/><circle cx="281.7" cy="85" r="1.59" fill="#7dcfff" opacity="0.26"/><circle cx="1339.5" cy="918.1" r="1.35" fill="#c0caf5" opacity="0.66"/><circle cx="69.1" cy="202.4" r="1.78" fill="#e0af68" opacity="0.19"/><circle cx="603.2" cy="503.2" r="1.94" fill="#c0caf5" opacity="0.63"/><circle cx="1343.6" cy="355.8" r="1.08" fill="#c0caf5" opacity="0.19"/><circle cx="916.5" cy="246.1" r="1.22" fill="#bb9af7" opacity="0.73"/><circle cx="282.7" cy="57.9" r="1.31" fill="#bb9af7" opacity="0.42"/><circle cx="1587.7" cy="504.4" r="1.42" fill="#c0caf5" opacity="0.31"/><circle cx="893.3" cy="147.3" r="0.55" fill="#c0caf5" opacity="0.54"/><circle cx="1397.7" cy="867.4" r="1.93" fill="#7dcfff" opacity="0.39"/><circle cx="130.6" cy="50.5" r="1.02" fill="#c0caf5" opacity="0.53"/><circle cx="309.8" cy="419.1" r="0.5" fill="#7dcfff" opacity="0.52"/><circle cx="733.4" cy="543.1" r="1.58" fill="#7dcfff" opacity="0.74"/><circle cx="1267.9" cy="640.8" r="1.53" fill="#c0caf5" opacity="0.62"/><circle cx="1319.1" cy="351.3" r="1.42" fill="#c0caf5" opacity="0.17"/><circle cx="1114.3" cy="482.3" r="0.68" fill="#bb9af7" opacity="0.57"/><circle cx="61.1" cy="48.5" r="1.09" fill="#c0caf5" opacity="0.65"/><circle cx="273.7" cy="523.2" r="1.66" fill="#bb9af7" opacity="0.5"/><circle cx="627.2" cy="480.2" r="1.14" fill="#c0caf5" opacity="0.72"/><circle cx="450.7" cy="43.6" r="1.96" fill="#bb9af7" opacity="0.47"/><circle cx="714.9" cy="1065.5" r="1.37" fill="#c0caf5" opacity="0.63"/><circle cx="1119.9" cy="335.8" r="1.55" fill="#c0caf5" opacity="0.37"/><circle cx="1486" cy="573.9" r="1.53" fill="#c0caf5" opacity="0.64"/><circle cx="839.7" cy="1073.3" r="1.53" fill="#bb9af7" opacity="0.36"/><circle cx="1088.9" cy="243.7" r="0.52" fill="#c0caf5" opacity="0.3"/><circle cx="1140.5" cy="76.1" r="1.67" fill="#c0caf5" opacity="0.52"/><circle cx="1371" cy="406.6" r="1.2" fill="#7dcfff" opacity="0.63"/><circle cx="1809.2" cy="471.8" r="0.94" fill="#e0af68" opacity="0.49"/><circle cx="1164.9" cy="405.4" r="1.37" fill="#c0caf5" opacity="0.76"/><circle cx="363.4" cy="255.4" r="0.55" fill="#7dcfff" opacity="0.38"/><circle cx="1420.1" cy="775.4" r="0.66" fill="#7dcfff" opacity="0.64"/><circle cx="381.4" cy="1000.7" r="1.27" fill="#e0af68" opacity="0.26"/><circle cx="1661.1" cy="701.9" r="0.93" fill="#c0caf5" opacity="0.62"/><circle cx="755.6" cy="169.6" r="0.83" fill="#e0af68" opacity="0.6"/><circle cx="306.4" cy="141.1" r="1.52" fill="#c0caf5" opacity="0.68"/><circle cx="1008.6" cy="553.7" r="0.81" fill="#7dcfff" opacity="0.77"/><circle cx="362.5" cy="423.5" r="1.62" fill="#c0caf5" opacity="0.41"/><circle cx="1077.7" cy="1079.8" r="1.24" fill="#c0caf5" opacity="0.68"/><circle cx="1285.9" cy="386.7" r="1.85" fill="#c0caf5" opacity="0.5"/><circle cx="100" cy="352.4" r="1.65" fill="#7dcfff" opacity="0.5"/><circle cx="1390" cy="592.4" r="1.78" fill="#bb9af7" opacity="0.67"/><circle cx="1345.6" cy="548.6" r="1.54" fill="#c0caf5" opacity="0.76"/><circle cx="1515.2" cy="867.1" r="1.67" fill="#7dcfff" opacity="0.6"/><circle cx="530.6" cy="843.6" r="1.66" fill="#e0af68" opacity="0.47"/><circle cx="561.1" cy="171.2" r="0.99" fill="#c0caf5" opacity="0.21"/><circle cx="130.8" cy="146.7" r="1.11" fill="#7dcfff" opacity="0.26"/><circle cx="263.3" cy="142.5" r="1.15" fill="#e0af68" opacity="0.29"/><circle cx="1354" cy="844.1" r="1.29" fill="#c0caf5" opacity="0.55"/><circle cx="656.2" cy="492.6" r="0.65" fill="#c0caf5" opacity="0.38"/><circle cx="391.5" cy="55.1" r="1.43" fill="#e0af68" opacity="0.34"/><circle cx="1230.7" cy="682.2" r="1.37" fill="#c0caf5" opacity="0.69"/><circle cx="1472.4" cy="782.5" r="0.59" fill="#c0caf5" opacity="0.55"/><circle cx="1658.6" cy="396.7" r="0.65" fill="#7dcfff" opacity="0.39"/><circle cx="1144" cy="30.4" r="1.93" fill="#c0caf5" opacity="0.53"/><circle cx="1179.9" cy="421.3" r="1.22" fill="#e0af68" opacity="0.42"/><circle cx="1860.1" cy="979.9" r="1.06" fill="#c0caf5" opacity="0.5"/><circle cx="67.7" cy="560.3" r="1.23" fill="#c0caf5" opacity="0.53"/><circle cx="1248.7" cy="924.7" r="0.58" fill="#e0af68" opacity="0.34"/><circle cx="1750.5" cy="897.7" r="1.73" fill="#c0caf5" opacity="0.43"/><circle cx="1818.7" cy="834.6" r="1.03" fill="#e0af68" opacity="0.48"/><circle cx="1522.6" cy="724.3" r="0.63" fill="#c0caf5" opacity="0.53"/><circle cx="1478.8" cy="1064.5" r="1.34" fill="#bb9af7" opacity="0.16"/><circle cx="1769.4" cy="901.3" r="0.57" fill="#c0caf5" opacity="0.21"/><circle cx="241.2" cy="159.9" r="1.43" fill="#7dcfff" opacity="0.24"/><circle cx="1357.4" cy="844.5" r="1.8" fill="#bb9af7" opacity="0.21"/><circle cx="1376.6" cy="570.6" r="1.97" fill="#e0af68" opacity="0.63"/><circle cx="1184.4" cy="249.3" r="1.16" fill="#c0caf5" opacity="0.61"/><circle cx="1560.1" cy="812.8" r="1.42" fill="#c0caf5" opacity="0.58"/>
<ellipse cx="1167.7" cy="898.5" rx="34" ry="34" fill="url(#bg1)"/><circle cx="1167.7" cy="898.5" r="2.2" fill="#fff" opacity=".72"/><ellipse cx="772.7" cy="992.7" rx="34" ry="34" fill="url(#bg1)"/><circle cx="772.7" cy="992.7" r="2.2" fill="#fff" opacity=".72"/><ellipse cx="310.8" cy="902.2" rx="34" ry="34" fill="url(#bg1)"/><circle cx="310.8" cy="902.2" r="2.2" fill="#fff" opacity=".72"/><ellipse cx="694.9" cy="205.5" rx="34" ry="34" fill="url(#bg1)"/><circle cx="694.9" cy="205.5" r="2.2" fill="#fff" opacity=".72"/><ellipse cx="1100.6" cy="418.8" rx="34" ry="34" fill="url(#bg1)"/><circle cx="1100.6" cy="418.8" r="2.2" fill="#fff" opacity=".72"/><ellipse cx="1662.4" cy="512.2" rx="34" ry="34" fill="url(#bg1)"/><circle cx="1662.4" cy="512.2" r="2.2" fill="#fff" opacity=".72"/><ellipse cx="1674.8" cy="773.5" rx="34" ry="34" fill="url(#bg1)"/><circle cx="1674.8" cy="773.5" r="2.2" fill="#fff" opacity=".72"/><ellipse cx="56.3" cy="540.2" rx="34" ry="34" fill="url(#bg1)"/><circle cx="56.3" cy="540.2" r="2.2" fill="#fff" opacity=".72"/><ellipse cx="308.4" cy="965.1" rx="34" ry="34" fill="url(#bg1)"/><circle cx="308.4" cy="965.1" r="2.2" fill="#fff" opacity=".72"/>
<rect width="1920" height="1080" fill="url(#v)"/>
</svg>
